<svg width="21" height="21" viewBox="0 0 21 21" fill="none" xmlns="http://www.w3.org/2000/svg">
<g clip-path="url(#clip0_510_967)">
<path d="M10.7511 0.201172C16.2741 0.201172 20.7511 4.67817 20.7511 10.2012C20.7511 15.7242 16.2741 20.2012 10.7511 20.2012C8.98383 20.204 7.24771 19.7363 5.72105 18.8462L0.755052 20.2012L2.10705 15.2332C1.21614 13.706 0.748099 11.9692 0.751051 10.2012C0.751051 4.67817 5.22805 0.201172 10.7511 0.201172ZM7.34305 5.50117L7.14305 5.50917C7.01357 5.51706 6.88703 5.55107 6.77105 5.60917C6.66257 5.6706 6.56355 5.7474 6.47705 5.83717C6.35705 5.95017 6.28905 6.04817 6.21605 6.14317C5.84617 6.62407 5.64702 7.21449 5.65005 7.82117C5.65205 8.31117 5.78005 8.78817 5.98005 9.23417C6.38905 10.1362 7.06205 11.0912 7.95005 11.9762C8.16405 12.1892 8.37405 12.4032 8.60005 12.6022C9.70344 13.5736 11.0183 14.2742 12.4401 14.6482L13.0081 14.7352C13.1931 14.7452 13.3781 14.7312 13.5641 14.7222C13.8553 14.7071 14.1397 14.6283 14.3971 14.4912C14.528 14.4237 14.6558 14.3503 14.7801 14.2712C14.7801 14.2712 14.8231 14.2432 14.9051 14.1812C15.0401 14.0812 15.1231 14.0102 15.2351 13.8932C15.3181 13.8072 15.3901 13.7062 15.4451 13.5912C15.5231 13.4282 15.6011 13.1172 15.6331 12.8582C15.6571 12.6602 15.6501 12.5522 15.6471 12.4852C15.6431 12.3782 15.5541 12.2672 15.4571 12.2202L14.8751 11.9592C14.8751 11.9592 14.0051 11.5802 13.4731 11.3382C13.4174 11.3139 13.3577 11.3 13.2971 11.2972C13.2286 11.2901 13.1595 11.2978 13.0943 11.3197C13.0291 11.3417 12.9693 11.3773 12.9191 11.4242C12.9141 11.4222 12.8471 11.4792 12.1241 12.3552C12.0826 12.4109 12.0254 12.4531 11.9599 12.4762C11.8943 12.4994 11.8234 12.5025 11.7561 12.4852C11.6909 12.4677 11.6271 12.4456 11.5651 12.4192C11.4411 12.3672 11.3981 12.3472 11.3131 12.3112C10.7391 12.0607 10.2077 11.7223 9.73805 11.3082C9.61205 11.1982 9.49505 11.0782 9.37505 10.9622C8.98164 10.5854 8.63877 10.1592 8.35505 9.69417L8.29605 9.59917C8.25367 9.53534 8.21941 9.46647 8.19405 9.39417C8.15605 9.24717 8.25505 9.12917 8.25505 9.12917C8.25505 9.12917 8.49805 8.86317 8.61105 8.71917C8.72105 8.57917 8.81405 8.44317 8.87405 8.34617C8.99205 8.15617 9.02905 7.96117 8.96705 7.81017C8.68705 7.12617 8.39705 6.44517 8.09905 5.76917C8.04005 5.63517 7.86505 5.53917 7.70605 5.52017C7.65205 5.51417 7.59805 5.50817 7.54405 5.50417C7.40976 5.4975 7.27519 5.49884 7.14105 5.50817L7.34205 5.50017L7.34305 5.50117Z" fill="#FCFCFC"/>
</g>
<defs>
<clipPath id="clip0_510_967">
<rect width="20" height="20" fill="white" transform="translate(0.751038 0.201172)"/>
</clipPath>
</defs>
</svg>
