<svg width="21" height="21" viewBox="0 0 21 21" fill="none" xmlns="http://www.w3.org/2000/svg">
<g clip-path="url(#clip0_510_965)">
<path d="M11.7786 0.202402C12.5083 0.199602 13.238 0.206936 13.9676 0.224402L14.1616 0.231402C14.3856 0.239402 14.6066 0.249402 14.8736 0.261402C15.9376 0.311402 16.6636 0.479402 17.3006 0.726402C17.9606 0.980402 18.5166 1.3244 19.0726 1.8804C19.581 2.38001 19.9744 2.98435 20.2256 3.6514C20.4726 4.2884 20.6406 5.0154 20.6906 6.0794C20.7026 6.3454 20.7126 6.5674 20.7206 6.7914L20.7266 6.9854C20.7443 7.71459 20.752 8.444 20.7496 9.1734L20.7506 9.9194V11.2294C20.753 11.9591 20.7454 12.6889 20.7276 13.4184L20.7216 13.6124C20.7136 13.8364 20.7036 14.0574 20.6916 14.3244C20.6416 15.3884 20.4716 16.1144 20.2256 16.7514C19.9752 17.4192 19.5817 18.024 19.0726 18.5234C18.5725 19.0317 17.9679 19.4252 17.3006 19.6764C16.6636 19.9234 15.9376 20.0914 14.8736 20.1414C14.6066 20.1534 14.3856 20.1634 14.1616 20.1714L13.9676 20.1774C13.2381 20.1952 12.5083 20.2028 11.7786 20.2004L11.0326 20.2014H9.72358C8.99384 20.2039 8.2641 20.1962 7.53458 20.1784L7.34058 20.1724C7.10319 20.1638 6.86585 20.1538 6.62858 20.1424C5.56458 20.0924 4.83858 19.9224 4.20058 19.6764C3.53326 19.4257 2.92881 19.0322 2.42958 18.5234C1.92062 18.0237 1.5268 17.419 1.27558 16.7514C1.02858 16.1144 0.860577 15.3884 0.810577 14.3244C0.79944 14.0871 0.78944 13.8498 0.780577 13.6124L0.775577 13.4184C0.757141 12.6889 0.748806 11.9591 0.750577 11.2294V9.1734C0.747786 8.444 0.75512 7.7146 0.772577 6.9854L0.779577 6.7914C0.787577 6.5674 0.797577 6.3454 0.809577 6.0794C0.859577 5.0144 1.02758 4.2894 1.27458 3.6514C1.52595 2.98402 1.92054 2.37985 2.43058 1.8814C2.92947 1.37215 3.53354 0.977975 4.20058 0.726402C4.83858 0.479402 5.56358 0.311402 6.62858 0.261402L7.34058 0.231402L7.53458 0.226402C8.26376 0.207975 8.99316 0.199641 9.72258 0.201402L11.7786 0.202402ZM10.7506 5.2024C10.0881 5.19303 9.43033 5.31543 8.81555 5.56247C8.20077 5.80951 7.64122 6.17628 7.16942 6.64146C6.69762 7.10663 6.32298 7.66094 6.06726 8.27217C5.81155 8.88339 5.67987 9.53934 5.67987 10.2019C5.67987 10.8645 5.81155 11.5204 6.06726 12.1316C6.32298 12.7429 6.69762 13.2972 7.16942 13.7623C7.64122 14.2275 8.20077 14.5943 8.81555 14.8413C9.43033 15.0884 10.0881 15.2108 10.7506 15.2014C12.0767 15.2014 13.3484 14.6746 14.2861 13.7369C15.2238 12.7993 15.7506 11.5275 15.7506 10.2014C15.7506 8.87532 15.2238 7.60355 14.2861 6.66587C13.3484 5.72819 12.0767 5.2024 10.7506 5.2024ZM10.7506 7.2024C11.1491 7.19506 11.5451 7.2672 11.9154 7.41461C12.2857 7.56202 12.6229 7.78174 12.9074 8.06095C13.1918 8.34015 13.4178 8.67323 13.572 9.04074C13.7263 9.40825 13.8058 9.80282 13.8058 10.2014C13.8059 10.6 13.7266 10.9946 13.5724 11.3621C13.4183 11.7297 13.1924 12.0628 12.9081 12.3421C12.6237 12.6214 12.2866 12.8413 11.9163 12.9888C11.546 13.1363 11.1501 13.2086 10.7516 13.2014C9.95593 13.2014 9.19287 12.8853 8.63026 12.3227C8.06765 11.7601 7.75158 10.9971 7.75158 10.2014C7.75158 9.40575 8.06765 8.64269 8.63026 8.08008C9.19287 7.51747 9.95593 7.2014 10.7516 7.2014L10.7506 7.2024ZM16.0006 3.7024C15.678 3.71531 15.3729 3.85255 15.1492 4.08537C14.9255 4.31819 14.8006 4.62854 14.8006 4.9514C14.8006 5.27427 14.9255 5.58461 15.1492 5.81743C15.3729 6.05025 15.678 6.18749 16.0006 6.2004C16.3321 6.2004 16.65 6.06871 16.8845 5.83429C17.1189 5.59987 17.2506 5.28192 17.2506 4.9504C17.2506 4.61888 17.1189 4.30094 16.8845 4.06652C16.65 3.8321 16.3321 3.7004 16.0006 3.7004V3.7024Z" fill="#FCFCFC"/>
</g>
<defs>
<clipPath id="clip0_510_965">
<rect width="20.001" height="20.0007" fill="white" transform="translate(0.75 0.201172)"/>
</clipPath>
</defs>
</svg>
