<svg width="27" height="25" viewBox="0 0 27 25" fill="none" xmlns="http://www.w3.org/2000/svg">
<g clip-path="url(#clip0_587_974)">
<path d="M18.212 4.96512C17.6042 4.96512 17.0836 4.74633 16.6504 4.30874C16.2171 3.87116 16.0013 3.34577 16.0027 2.73256C16.0027 2.11861 16.2194 1.59284 16.6526 1.15526C17.0858 0.717676 17.6057 0.499258 18.212 0.500002C18.8199 0.500002 19.3405 0.718793 19.7737 1.15637C20.2069 1.59396 20.4232 2.11935 20.4225 2.73256C20.4225 3.34651 20.2058 3.87228 19.7726 4.30986C19.3394 4.74744 18.8192 4.96586 18.212 4.96512ZM12.686 9.43023C12.0781 9.43023 11.558 9.21144 11.1255 8.77386C10.693 8.33628 10.4763 7.81088 10.4756 7.19767C10.4756 6.58372 10.6922 6.05795 11.1255 5.62037C11.5587 5.18279 12.0789 4.96437 12.686 4.96512C13.2939 4.96512 13.8144 5.18391 14.2477 5.62149C14.6809 6.05907 14.8972 6.58447 14.8964 7.19767C14.8964 7.81163 14.6802 8.3374 14.2477 8.77498C13.8152 9.21256 13.2946 9.43098 12.686 9.43023ZM15.3938 15.486C14.528 15.393 13.722 15.1791 12.9756 14.8442C12.2292 14.5093 11.562 14.0442 10.974 13.4488L10.2004 12.6674L7.60316 15.2907L9.9241 17.6907V23.3837C9.9241 23.7 9.81837 23.9653 9.6069 24.1796C9.39544 24.3939 9.1324 24.5007 8.81779 24.5C8.50464 24.5 8.24234 24.3928 8.03088 24.1785C7.81942 23.9642 7.71295 23.6993 7.71147 23.3837V18.6395L6.27471 17.3V19.7558L2.35122 23.7186C2.1486 23.9233 1.89072 24.0256 1.57758 24.0256C1.26443 24.0256 1.00655 23.9233 0.803932 23.7186C0.601311 23.5139 0.5 23.2535 0.5 22.9372C0.5 22.6209 0.601311 22.3605 0.803932 22.1558L4.06429 18.8628L2.84856 15.5698C2.71962 15.2349 2.69199 14.849 2.76567 14.4122C2.83935 13.9753 3.05119 13.5798 3.40117 13.2256L7.04835 9.54186C7.26939 9.3186 7.50885 9.15116 7.76674 9.03953C8.02462 8.92791 8.3105 8.87209 8.62438 8.87209C8.93752 8.87209 9.22303 8.92791 9.48091 9.03953C9.73879 9.15116 9.97825 9.3186 10.1993 9.54186L12.4097 11.7186C12.815 12.1279 13.2802 12.4628 13.8056 12.7233C14.3309 12.9837 14.9064 13.1605 15.5319 13.2535C15.8266 13.2907 16.0709 13.4165 16.2647 13.6308C16.4585 13.8451 16.555 14.0914 16.5542 14.3698C16.5542 14.7046 16.4393 14.9837 16.2094 15.207C15.9795 15.4302 15.7076 15.5233 15.3938 15.486ZM22.8539 23.607L21.0856 16.1279L18.7647 18.3605V23.3837C18.7647 23.7 18.6586 23.9653 18.4464 24.1796C18.2341 24.3939 17.9718 24.5007 17.6594 24.5C17.3463 24.5 17.084 24.3928 16.8725 24.1785C16.6611 23.9642 16.555 23.6993 16.5542 23.3837V16.686L18.8752 14.4535L18.212 10.5465C17.9357 10.8814 17.6318 11.1791 17.3002 11.4395C16.9687 11.7 16.6095 11.9419 16.2227 12.1651C15.6148 12.1279 15.0394 11.9977 14.4963 11.7744C13.9533 11.5512 13.4972 11.2535 13.1281 10.8814C13.957 10.7326 14.6894 10.4487 15.3252 10.0297C15.9611 9.6107 16.4809 9.076 16.8847 8.42558L17.9899 6.63954C18.303 6.13721 18.7359 5.79749 19.2885 5.62037C19.8411 5.44326 20.3845 5.4667 20.9187 5.6907L25.8369 7.81163C26.0395 7.90465 26.2008 8.03972 26.3209 8.21684C26.441 8.39395 26.5007 8.59377 26.5 8.81628V12.2209C26.5 12.5372 26.3939 12.8025 26.1817 13.0168C25.9695 13.2312 25.7072 13.338 25.3948 13.3372C25.0816 13.3372 24.819 13.23 24.6068 13.0157C24.3946 12.8014 24.2896 12.5365 24.2918 12.2209V9.54186L22.3024 8.76046L25.1207 23.1326C25.1944 23.5046 25.1207 23.8258 24.8997 24.0959C24.6786 24.366 24.3743 24.5007 23.9868 24.5C23.7289 24.5 23.4894 24.4163 23.2684 24.2488C23.0473 24.0814 22.9092 23.8674 22.8539 23.607Z" fill="#C2272D"/>
</g>
<defs>
<clipPath id="clip0_587_974">
<rect width="26" height="24" fill="white" transform="translate(0.5 0.5)"/>
</clipPath>
</defs>
</svg>
