<svg width="21" height="21" viewBox="0 0 21 21" fill="none" xmlns="http://www.w3.org/2000/svg">
<g clip-path="url(#clip0_510_966)">
<path d="M19.651 0.201172H1.85104C1.5593 0.201172 1.27951 0.317065 1.07322 0.523355C0.86693 0.729645 0.751038 1.00943 0.751038 1.30117V19.1012C0.751038 19.3929 0.86693 19.6727 1.07322 19.879C1.27951 20.0853 1.5593 20.2012 1.85104 20.2012H11.431V12.4512H8.83104V9.45117H11.431V7.20117C11.3772 6.67293 11.4395 6.1393 11.6138 5.63771C11.788 5.13612 12.0698 4.67872 12.4395 4.29758C12.8092 3.91645 13.2578 3.62081 13.7539 3.43141C14.2499 3.24201 14.7814 3.16342 15.311 3.20117C16.0894 3.19638 16.8673 3.23645 17.641 3.32117V6.02117H16.051C14.791 6.02117 14.551 6.62117 14.551 7.49117V9.42117H17.551L17.161 12.4212H14.551V20.2012H19.651C19.7955 20.2012 19.9385 20.1727 20.072 20.1174C20.2054 20.0622 20.3267 19.9811 20.4289 19.879C20.531 19.7768 20.612 19.6556 20.6673 19.5221C20.7226 19.3887 20.751 19.2456 20.751 19.1012V1.30117C20.751 1.15672 20.7226 1.01368 20.6673 0.88022C20.612 0.746762 20.531 0.625499 20.4289 0.523355C20.3267 0.42121 20.2054 0.340185 20.072 0.284904C19.9385 0.229624 19.7955 0.201172 19.651 0.201172Z" fill="#FCFCFC"/>
</g>
<defs>
<clipPath id="clip0_510_966">
<rect width="20" height="20" fill="white" transform="translate(0.751038 0.201172)"/>
</clipPath>
</defs>
</svg>
