<svg width="13" height="13" viewBox="0 0 13 13" fill="none" xmlns="http://www.w3.org/2000/svg">
<g clip-path="url(#clip0_587_977)">
<path d="M3.83333 7.8C3.64444 7.8 3.486 7.7376 3.358 7.6128C3.23 7.488 3.16622 7.33373 3.16667 7.15C3.16667 6.96583 3.23067 6.81135 3.35867 6.68655C3.48667 6.56175 3.64489 6.49957 3.83333 6.5C4.02222 6.5 4.18067 6.5624 4.30867 6.6872C4.43667 6.812 4.50044 6.96627 4.5 7.15C4.5 7.33417 4.436 7.48865 4.308 7.61345C4.18 7.73825 4.02178 7.80043 3.83333 7.8ZM6.5 7.8C6.31111 7.8 6.15267 7.7376 6.02467 7.6128C5.89667 7.488 5.83289 7.33373 5.83333 7.15C5.83333 6.96583 5.89733 6.81135 6.02533 6.68655C6.15333 6.56175 6.31156 6.49957 6.5 6.5C6.68889 6.5 6.84733 6.5624 6.97533 6.6872C7.10333 6.812 7.16711 6.96627 7.16667 7.15C7.16667 7.33417 7.10267 7.48865 6.97467 7.61345C6.84667 7.73825 6.68844 7.80043 6.5 7.8ZM9.16667 7.8C8.97778 7.8 8.81933 7.7376 8.69133 7.6128C8.56333 7.488 8.49956 7.33373 8.5 7.15C8.5 6.96583 8.564 6.81135 8.692 6.68655C8.82 6.56175 8.97822 6.49957 9.16667 6.5C9.35555 6.5 9.514 6.5624 9.642 6.6872C9.77 6.812 9.83378 6.96627 9.83333 7.15C9.83333 7.33417 9.76933 7.48865 9.64133 7.61345C9.51333 7.73825 9.35511 7.80043 9.16667 7.8ZM1.83333 13C1.46667 13 1.15267 12.8726 0.891334 12.6178C0.630001 12.363 0.499557 12.0571 0.500001 11.7V2.6C0.500001 2.2425 0.630668 1.93635 0.892001 1.68155C1.15333 1.42675 1.46711 1.29957 1.83333 1.3H2.5V0H3.83333V1.3H9.16667V0H10.5V1.3H11.1667C11.5333 1.3 11.8473 1.4274 12.1087 1.6822C12.37 1.937 12.5004 2.24293 12.5 2.6V11.7C12.5 12.0575 12.3693 12.3636 12.108 12.6184C11.8467 12.8732 11.5329 13.0004 11.1667 13H1.83333ZM1.83333 11.7H11.1667V5.2H1.83333V11.7Z" fill="#C2272D"/>
</g>
<defs>
<clipPath id="clip0_587_977">
<rect width="12" height="13" fill="white" transform="translate(0.5)"/>
</clipPath>
</defs>
</svg>
